<?xml version="1.0" encoding="utf-8"?>
<!-- Generator: Adobe Illustrator 16.0.0, SVG Export Plug-In . SVG Version: 6.00 Build 0)  -->
<!DOCTYPE svg PUBLIC "-//W3C//DTD SVG 1.1//EN" "http://www.w3.org/Graphics/SVG/1.1/DTD/svg11.dtd">
<svg version="1.1" xmlns="http://www.w3.org/2000/svg" xmlns:xlink="http://www.w3.org/1999/xlink" x="0px" y="0px" width="1617px"
	 height="874px" viewBox="0 0 1617 874" enable-background="new 0 0 1617 874" xml:space="preserve">
<g id="background" display="none">
	<rect display="inline" fill="#2980BA" width="1617" height="874"/>
</g>
<g id="Layer_1" display="none">
	<g display="inline">
		<circle fill="#FFFFFF" cx="720.578" cy="323.678" r="87.666"/>
		<path fill="#FFFFFF" d="M939.919,247.624c-3.44-0.88-6.583-2.48-9.282-4.623c-10.55-4.5-22.159-6.989-34.354-6.989
			c-48.419,0-87.665,39.249-87.665,87.667c0,48.416,39.246,87.665,87.665,87.665c48.416,0,87.665-39.249,87.665-87.665
			C983.948,291.147,966.229,262.756,939.919,247.624z"/>
		<path fill="#FFFFFF" d="M930.637,243.001c2.699,2.143,5.842,3.743,9.282,4.623C936.932,245.908,933.83,244.362,930.637,243.001z"
			/>
		<rect x="719" y="234" fill="#FFFFFF" width="176" height="177"/>
		<polygon fill="#2980BA" points="839.859,342 808.416,402.261 776.979,342 		"/>
		<rect x="777" y="326" fill="#2980BA" width="64" height="16"/>
		<path fill="#2980BA" d="M947.552,323.515c0,38.408-31.14,69.546-69.549,69.546c-38.406,0-69.543-31.138-69.543-69.546
			c0-38.407,31.137-69.544,69.543-69.544C916.412,253.971,947.552,285.107,947.552,323.515z"/>
		<circle fill="#2980BA" cx="738.229" cy="323.786" r="69.545"/>
		<circle fill="#FFFFFF" cx="878.005" cy="323.273" r="39.535"/>
		<circle fill="#FFFFFF" cx="738.563" cy="324" r="39.534"/>
		<circle fill="#2980BA" cx="878.005" cy="323.634" r="32.634"/>
		<circle fill="#2980BA" cx="738.921" cy="324.358" r="32.634"/>
		<circle fill="#FFFFFF" cx="751.991" cy="307.66" r="10.852"/>
		<path fill="#FFFFFF" d="M902.968,307.66c0,5.992-4.854,10.854-10.854,10.854c-5.99,0-10.849-4.861-10.849-10.854
			s4.858-10.852,10.849-10.852C898.113,296.809,902.968,301.668,902.968,307.66z"/>
		<g>
			<path fill="#FFFFFF" d="M933,202.716v-0.217C899,223.506,856.393,234,808.425,234c-0.083,0-0.425,0-0.425,0v15h125v-4.762
				c-7-4.467-11.131-12.099-11.131-20.762C921.869,214.811,926,207.181,933,202.716z"/>
			<path fill="#FFFFFF" d="M685,202.716v-0.217C716,223.506,759.958,234,807.925,234c0.083,0,0.075,0,0.075,0v15H685v-4.762
				c4-4.467,11.133-12.099,11.133-20.762C696.133,214.811,689,207.181,685,202.716z"/>
		</g>
	</g>
	<g display="inline">
		<path fill="#FFFFFF" d="M382.544,462.601h19.963l16.345,46.244l17.585-46.244h12.211l17.27,45.721l16.364-45.721h20.093
			l-29.659,81.281h-12.924l-17.332-46.318l-17.855,46.318h-12.774L382.544,462.601z"/>
		<rect x="511.675" y="462.601" fill="#FFFFFF" width="20.395" height="81.281"/>
		<path fill="#FFFFFF" d="M600.353,473.956l-12.626,12.625c-5.13-5.08-9.786-7.619-13.97-7.619c-2.292,0-4.085,0.485-5.379,1.456
			c-1.297,0.972-1.943,2.18-1.943,3.624c0,1.096,0.412,2.104,1.232,3.025c0.822,0.922,2.852,2.179,6.09,3.772l7.471,3.735
			c7.868,3.885,13.271,7.844,16.211,11.879c2.938,4.033,4.408,8.766,4.408,14.193c0,7.223-2.652,13.249-7.957,18.08
			s-12.414,7.246-21.328,7.246c-11.854,0-21.318-4.632-28.389-13.896l12.551-13.671c2.391,2.789,5.191,5.042,8.404,6.761
			c3.213,1.718,6.063,2.577,8.554,2.577c2.689,0,4.856-0.646,6.499-1.942c1.645-1.295,2.466-2.789,2.466-4.482
			c0-3.138-2.964-6.2-8.89-9.188l-6.873-3.438c-13.148-6.623-19.723-14.915-19.723-24.877c0-6.425,2.477-11.916,7.434-16.473
			c4.955-4.558,11.291-6.836,19.012-6.836c5.279,0,10.247,1.158,14.904,3.474C593.167,466.299,597.114,469.623,600.353,473.956z"/>
		<path fill="#FFFFFF" d="M699.339,509.144h-65.518c0.945,5.777,3.474,10.372,7.582,13.783c4.109,3.412,9.35,5.117,15.727,5.117
			c7.619,0,14.168-2.664,19.647-7.994l17.183,8.068c-4.284,6.077-9.413,10.571-15.39,13.485c-5.977,2.913-13.073,4.37-21.292,4.37
			c-12.75,0-23.135-4.021-31.152-12.065c-8.02-8.042-12.027-18.116-12.027-30.219c0-12.401,3.996-22.698,11.99-30.892
			c7.993-8.191,18.016-12.289,30.069-12.289c12.8,0,23.208,4.098,31.228,12.289c8.019,8.193,12.027,19.014,12.027,32.461
			L699.339,509.144z M678.944,493.081c-1.348-4.531-4.004-8.218-7.971-11.057s-8.568-4.258-13.807-4.258
			c-5.688,0-10.676,1.594-14.967,4.781c-2.693,1.992-5.188,5.503-7.482,10.533H678.944z"/>
		<path fill="#FFFFFF" d="M736.094,462.601v8.965c3.686-3.686,7.67-6.449,11.953-8.293c4.283-1.842,8.865-2.764,13.746-2.764
			c10.609,0,19.623,4.01,27.045,12.027c7.42,8.02,11.131,18.304,11.131,30.854c0,12.103-3.836,22.226-11.505,30.368
			c-7.67,8.144-16.76,12.215-27.269,12.215c-4.682,0-9.039-0.835-13.073-2.503s-8.044-4.395-12.028-8.181v38.325h-20.245V462.601
			H736.094z M757.535,479.335c-6.425,0-11.755,2.192-15.987,6.574c-4.233,4.383-6.351,10.111-6.351,17.183
			c0,7.222,2.117,13.063,6.351,17.519c4.232,4.458,9.563,6.687,15.987,6.687c6.226,0,11.468-2.266,15.726-6.798
			c4.259-4.532,6.388-10.311,6.388-17.332c0-6.973-2.092-12.688-6.275-17.146C769.189,481.564,763.91,479.335,757.535,479.335z"/>
		<path fill="#FFFFFF" d="M812.071,462.601h17.481v10.234c1.893-4.033,4.408-7.097,7.545-9.188
			c3.139-2.092,6.574-3.138,10.311-3.138c2.639,0,5.403,0.698,8.292,2.092l-6.351,17.557c-2.391-1.195-4.358-1.793-5.901-1.793
			c-3.138,0-5.79,1.941-7.956,5.826c-2.167,3.885-3.25,11.506-3.25,22.861l0.074,3.959v32.871h-20.245V462.601z"/>
		<path fill="#FFFFFF" d="M903.961,460.509c7.67,0,14.879,1.918,21.628,5.752c6.748,3.836,12.016,9.04,15.801,15.614
			c3.784,6.574,5.678,13.671,5.678,21.292c0,7.67-1.905,14.842-5.715,21.516c-3.811,6.674-9.003,11.891-15.577,15.65
			s-13.82,5.641-21.739,5.641c-11.654,0-21.604-4.146-29.846-12.438c-8.243-8.293-12.364-18.365-12.364-30.22
			c0-12.699,4.657-23.282,13.971-31.75C883.965,464.195,893.354,460.509,903.961,460.509z M904.298,479.708
			c-6.336,0-11.612,2.204-15.827,6.612c-4.217,4.407-6.324,10.048-6.324,16.921c0,7.072,2.083,12.801,6.249,17.183
			c4.165,4.383,9.441,6.574,15.827,6.574s11.699-2.216,15.939-6.649c4.24-4.432,6.361-10.134,6.361-17.107
			c0-6.973-2.084-12.637-6.249-16.996C916.108,481.888,910.783,479.708,904.298,479.708z"/>
		<path fill="#FFFFFF" d="M963.13,462.601h20.396v83.971c0,7.72-0.761,13.484-2.279,17.295c-1.52,3.81-3.922,6.735-7.209,8.777
			s-7.246,3.063-11.879,3.063c-4.084,0-9.163-1.021-15.24-3.063v-16.062c3.188,1.543,6.003,2.315,8.442,2.315
			c2.589,0,4.531-0.772,5.827-2.315c1.295-1.544,1.942-4.383,1.942-8.517V462.601z"/>
		<path fill="#FFFFFF" d="M1084.902,509.144h-65.518c0.945,5.777,3.473,10.372,7.582,13.783c4.109,3.412,9.35,5.117,15.727,5.117
			c7.619,0,14.168-2.664,19.646-7.994l17.184,8.068c-4.285,6.077-9.414,10.571-15.391,13.485c-5.977,2.913-13.072,4.37-21.291,4.37
			c-12.75,0-23.135-4.021-31.152-12.065c-8.02-8.042-12.027-18.116-12.027-30.219c0-12.401,3.996-22.698,11.99-30.892
			c7.992-8.191,18.016-12.289,30.068-12.289c12.801,0,23.209,4.098,31.229,12.289c8.018,8.193,12.027,19.014,12.027,32.461
			L1084.902,509.144z M1064.508,493.081c-1.348-4.531-4.004-8.218-7.971-11.057s-8.568-4.258-13.807-4.258
			c-5.688,0-10.678,1.594-14.967,4.781c-2.693,1.992-5.189,5.503-7.482,10.533H1064.508z"/>
		<path fill="#FFFFFF" d="M1180.977,479.036l-16.979,9.338c-3.191-3.336-6.346-5.651-9.463-6.947
			c-3.117-1.295-6.77-1.942-10.957-1.942c-7.629,0-13.801,2.275-18.512,6.825c-4.713,4.55-7.068,10.381-7.068,17.491
			c0,6.912,2.268,12.558,6.807,16.933c4.537,4.376,10.496,6.563,17.875,6.563c9.127,0,16.232-3.112,21.318-9.339l16.082,11.012
			c-8.717,11.337-21.02,17.004-36.906,17.004c-14.295,0-25.488-4.232-33.58-12.7c-8.096-8.467-12.141-18.378-12.141-29.733
			c0-7.869,1.967-15.115,5.902-21.74c3.934-6.623,9.424-11.828,16.473-15.613c7.047-3.784,14.928-5.678,23.645-5.678
			c8.068,0,15.314,1.606,21.74,4.818C1171.637,468.54,1176.891,473.109,1180.977,479.036z"/>
		<path fill="#FFFFFF" d="M1201.82,432.644h20.395v29.957h12.102v17.557h-12.102v63.725h-20.395v-63.725h-10.459v-17.557h10.459
			V432.644z"/>
	</g>
</g>
<g id="Layer_2">
	<g>
		<g>
			<circle fill="#FFFFFF" cx="271.98" cy="453.979" r="89.373"/>
			<path fill="#FFFFFF" d="M495.59,376.445c-3.505-0.898-6.713-2.529-9.462-4.714c-10.755-4.586-22.592-7.126-35.022-7.126
				c-49.359,0-89.373,40.014-89.373,89.373s40.014,89.373,89.373,89.373s89.373-40.014,89.373-89.373
				C540.479,420.814,522.415,391.869,495.59,376.445z"/>
			<path fill="#FFFFFF" d="M486.128,371.731c2.749,2.185,5.957,3.815,9.462,4.714C492.545,374.694,489.385,373.119,486.128,371.731z
				"/>
			<rect x="272" y="365" fill="#FFFFFF" width="179" height="178"/>
			<polygon fill="#2980BA" points="393.58,473 361.53,534.436 329.479,473 			"/>
			<rect x="329" y="454" fill="#2980BA" width="65" height="19"/>
			<circle fill="#2980BA" cx="432.472" cy="453.813" r="70.899"/>
			<circle fill="#2980BA" cx="289.973" cy="454.088" r="70.899"/>
			<circle fill="#FFFFFF" cx="432.472" cy="453.567" r="40.305"/>
			<circle fill="#FFFFFF" cx="290.313" cy="454.308" r="40.305"/>
			<circle fill="#2980BA" cx="432.472" cy="453.934" r="33.269"/>
			<circle fill="#2980BA" cx="290.679" cy="454.674" r="33.269"/>
			<circle fill="#FFFFFF" cx="304.003" cy="437.649" r="11.063"/>
			<circle fill="#FFFFFF" cx="446.858" cy="437.649" r="11.063"/>
			<g>
				<path fill="#FFFFFF" d="M489,330.661v-0.221c-34,21.415-78.502,34.463-127.4,34.463c-0.086,0-0.6-0.002-0.6-0.002V378h128
					v-5.008c-7-4.554-11.35-12.332-11.35-21.165C477.65,342.992,482,335.215,489,330.661z"/>
				<path fill="#FFFFFF" d="M234,330.661v-0.221c34,21.415,78.002,34.463,126.9,34.463c0.085,0,0.1-0.002,0.1-0.002V378H234v-5.008
					c7-4.554,11.35-12.332,11.35-21.165C245.35,342.992,241,335.215,234,330.661z"/>
			</g>
		</g>
		<g>
			<path fill="#FFFFFF" d="M583.377,414.601h19.963l16.345,46.244l17.585-46.244h12.211l17.27,45.721l16.364-45.721h20.093
				l-29.659,81.281h-12.924l-17.332-46.318l-17.855,46.318h-12.774L583.377,414.601z"/>
			<rect x="712.508" y="414.601" fill="#FFFFFF" width="20.395" height="81.281"/>
			<path fill="#FFFFFF" d="M801.186,425.956l-12.626,12.625c-5.13-5.08-9.786-7.619-13.97-7.619c-2.292,0-4.085,0.485-5.379,1.456
				c-1.297,0.972-1.943,2.18-1.943,3.624c0,1.096,0.412,2.104,1.232,3.025c0.822,0.922,2.852,2.179,6.09,3.772l7.471,3.735
				c7.868,3.885,13.271,7.844,16.211,11.879c2.938,4.033,4.408,8.766,4.408,14.193c0,7.223-2.652,13.249-7.957,18.08
				s-12.414,7.246-21.328,7.246c-11.854,0-21.318-4.632-28.389-13.896l12.551-13.671c2.391,2.789,5.191,5.042,8.404,6.761
				c3.213,1.718,6.063,2.577,8.554,2.577c2.689,0,4.856-0.646,6.499-1.942c1.645-1.295,2.466-2.789,2.466-4.482
				c0-3.138-2.964-6.2-8.89-9.188l-6.873-3.438c-13.148-6.623-19.723-14.915-19.723-24.877c0-6.425,2.477-11.916,7.434-16.473
				c4.955-4.558,11.291-6.836,19.012-6.836c5.279,0,10.247,1.158,14.904,3.474C794,418.299,797.947,421.623,801.186,425.956z"/>
			<path fill="#FFFFFF" d="M900.172,461.144h-65.518c0.945,5.777,3.474,10.372,7.582,13.783c4.109,3.412,9.35,5.117,15.727,5.117
				c7.619,0,14.168-2.664,19.647-7.994l17.183,8.068c-4.284,6.077-9.413,10.571-15.39,13.485c-5.977,2.913-13.073,4.37-21.292,4.37
				c-12.75,0-23.135-4.021-31.152-12.065c-8.02-8.042-12.027-18.116-12.027-30.219c0-12.401,3.996-22.698,11.99-30.892
				c7.993-8.191,18.016-12.289,30.069-12.289c12.8,0,23.208,4.098,31.228,12.289c8.019,8.193,12.027,19.014,12.027,32.461
				L900.172,461.144z M879.777,445.081c-1.348-4.531-4.004-8.218-7.971-11.057s-8.568-4.258-13.807-4.258
				c-5.688,0-10.676,1.594-14.967,4.781c-2.693,1.992-5.188,5.503-7.482,10.533H879.777z"/>
			<path fill="#FFFFFF" d="M936.927,414.601v8.965c3.686-3.686,7.67-6.449,11.953-8.293c4.283-1.842,8.865-2.764,13.746-2.764
				c10.609,0,19.623,4.01,27.045,12.027c7.42,8.02,11.131,18.304,11.131,30.854c0,12.103-3.836,22.226-11.505,30.368
				c-7.67,8.144-16.76,12.215-27.269,12.215c-4.682,0-9.039-0.835-13.073-2.503s-8.044-4.395-12.028-8.181v38.325h-20.245V414.601
				H936.927z M958.368,431.335c-6.425,0-11.755,2.192-15.987,6.574c-4.233,4.383-6.351,10.111-6.351,17.183
				c0,7.222,2.117,13.063,6.351,17.519c4.232,4.458,9.563,6.687,15.987,6.687c6.226,0,11.468-2.266,15.726-6.798
				c4.259-4.532,6.388-10.311,6.388-17.332c0-6.973-2.092-12.688-6.275-17.146C970.022,433.564,964.743,431.335,958.368,431.335z"/>
			<path fill="#FFFFFF" d="M1012.904,414.601h17.481v10.234c1.893-4.033,4.408-7.097,7.545-9.188
				c3.139-2.092,6.574-3.138,10.311-3.138c2.639,0,5.403,0.698,8.292,2.092l-6.351,17.557c-2.391-1.195-4.358-1.793-5.901-1.793
				c-3.138,0-5.79,1.941-7.956,5.826c-2.167,3.885-3.25,11.506-3.25,22.861l0.074,3.959v32.871h-20.245V414.601z"/>
			<path fill="#FFFFFF" d="M1104.794,412.509c7.67,0,14.879,1.918,21.628,5.752c6.748,3.836,12.016,9.04,15.801,15.614
				c3.784,6.574,5.678,13.671,5.678,21.292c0,7.67-1.905,14.842-5.715,21.516c-3.811,6.674-9.003,11.891-15.577,15.65
				s-13.82,5.641-21.739,5.641c-11.654,0-21.604-4.146-29.846-12.438c-8.243-8.293-12.364-18.365-12.364-30.22
				c0-12.699,4.657-23.282,13.971-31.75C1084.798,416.195,1094.187,412.509,1104.794,412.509z M1105.131,431.708
				c-6.336,0-11.612,2.204-15.827,6.612c-4.217,4.407-6.324,10.048-6.324,16.921c0,7.072,2.083,12.801,6.249,17.183
				c4.165,4.383,9.441,6.574,15.827,6.574s11.699-2.216,15.939-6.649c4.24-4.432,6.361-10.134,6.361-17.107
				c0-6.973-2.084-12.637-6.249-16.996C1116.941,433.888,1111.616,431.708,1105.131,431.708z"/>
			<path fill="#FFFFFF" d="M1163.963,414.601h20.396v83.971c0,7.72-0.761,13.484-2.279,17.295c-1.52,3.81-3.922,6.735-7.209,8.777
				s-7.246,3.063-11.879,3.063c-4.084,0-9.163-1.021-15.24-3.063v-16.062c3.188,1.543,6.003,2.315,8.442,2.315
				c2.589,0,4.531-0.772,5.827-2.315c1.295-1.544,1.942-4.383,1.942-8.517V414.601z"/>
			<path fill="#FFFFFF" d="M1285.735,461.144h-65.518c0.945,5.777,3.474,10.372,7.582,13.783c4.109,3.412,9.351,5.117,15.727,5.117
				c7.619,0,14.168-2.664,19.647-7.994l17.183,8.068c-4.284,6.077-9.413,10.571-15.39,13.485c-5.977,2.913-13.073,4.37-21.292,4.37
				c-12.75,0-23.134-4.021-31.152-12.065c-8.02-8.042-12.027-18.116-12.027-30.219c0-12.401,3.996-22.698,11.99-30.892
				c7.993-8.191,18.016-12.289,30.069-12.289c12.8,0,23.208,4.098,31.228,12.289c8.019,8.193,12.027,19.014,12.027,32.461
				L1285.735,461.144z M1265.341,445.081c-1.348-4.531-4.004-8.218-7.971-11.057s-8.568-4.258-13.807-4.258
				c-5.688,0-10.677,1.594-14.966,4.781c-2.694,1.992-5.189,5.503-7.483,10.533H1265.341z"/>
			<path fill="#FFFFFF" d="M1381.81,431.036l-16.979,9.338c-3.191-3.336-6.346-5.651-9.463-6.947
				c-3.116-1.295-6.769-1.942-10.957-1.942c-7.629,0-13.801,2.275-18.512,6.825c-4.713,4.55-7.068,10.381-7.068,17.491
				c0,6.912,2.268,12.558,6.807,16.933c4.537,4.376,10.496,6.563,17.876,6.563c9.126,0,16.231-3.112,21.317-9.339l16.082,11.012
				c-8.717,11.337-21.019,17.004-36.906,17.004c-14.294,0-25.487-4.232-33.58-12.7c-8.095-8.467-12.141-18.378-12.141-29.733
				c0-7.869,1.968-15.115,5.902-21.74c3.934-6.623,9.425-11.828,16.473-15.613c7.047-3.784,14.929-5.678,23.645-5.678
				c8.068,0,15.315,1.606,21.74,4.818C1372.471,420.54,1377.725,425.109,1381.81,431.036z"/>
			<path fill="#FFFFFF" d="M1402.653,384.644h20.395v29.957h12.103v17.557h-12.103v63.725h-20.395v-63.725h-10.459v-17.557h10.459
				V384.644z"/>
		</g>
	</g>
</g>
<g id="text" display="none">
	<g display="inline">
		<rect x="-138.36" y="932.295" fill="none" width="1342" height="300"/>
		<path fill="#FFFFFF" d="M-137.053,963.62h19.963l16.345,46.244l17.585-46.244h12.211l17.27,45.721l16.364-45.721h20.093
			l-29.659,81.281h-12.924l-17.332-46.318l-17.855,46.318h-12.774L-137.053,963.62z"/>
		<path fill="#FFFFFF" d="M2.275,930.151c3.576,0,6.643,1.296,9.199,3.885c2.559,2.59,3.838,5.728,3.838,9.413
			c0,3.636-1.268,6.736-3.8,9.301c-2.533,2.566-5.563,3.848-9.088,3.848c-3.626,0-6.718-1.308-9.274-3.922
			c-2.559-2.615-3.836-5.79-3.836-9.525c0-3.586,1.265-6.649,3.798-9.188C-4.354,931.421-1.301,930.151,2.275,930.151z
			 M-7.922,963.62h20.395v81.281H-7.922V963.62z"/>
		<path fill="#FFFFFF" d="M80.756,974.976L68.13,987.601c-5.13-5.08-9.786-7.619-13.97-7.619c-2.292,0-4.085,0.485-5.379,1.456
			c-1.297,0.972-1.943,2.18-1.943,3.624c0,1.096,0.412,2.104,1.232,3.025c0.822,0.922,2.852,2.179,6.09,3.772l7.471,3.735
			c7.868,3.885,13.271,7.844,16.211,11.879c2.938,4.033,4.408,8.766,4.408,14.193c0,7.223-2.652,13.249-7.957,18.08
			s-12.414,7.246-21.328,7.246c-11.854,0-21.318-4.632-28.389-13.896l12.551-13.671c2.391,2.789,5.191,5.042,8.404,6.761
			c3.213,1.718,6.063,2.577,8.554,2.577c2.689,0,4.856-0.646,6.499-1.942c1.645-1.295,2.466-2.789,2.466-4.482
			c0-3.138-2.964-6.2-8.89-9.188l-6.873-3.438c-13.148-6.623-19.723-14.915-19.723-24.877c0-6.425,2.477-11.916,7.434-16.473
			c4.955-4.558,11.291-6.836,19.012-6.836c5.279,0,10.247,1.158,14.904,3.474C73.57,967.318,77.518,970.643,80.756,974.976z"/>
		<path fill="#FFFFFF" d="M179.742,1010.163h-65.518c0.945,5.777,3.474,10.372,7.582,13.783c4.109,3.412,9.35,5.117,15.727,5.117
			c7.619,0,14.168-2.664,19.647-7.994l17.183,8.068c-4.284,6.077-9.413,10.571-15.39,13.485c-5.977,2.913-13.073,4.37-21.292,4.37
			c-12.75,0-23.135-4.021-31.152-12.065c-8.02-8.042-12.027-18.116-12.027-30.219c0-12.401,3.996-22.698,11.99-30.892
			c7.993-8.191,18.016-12.289,30.069-12.289c12.8,0,23.208,4.098,31.228,12.289c8.019,8.193,12.027,19.014,12.027,32.461
			L179.742,1010.163z M159.348,994.101c-1.348-4.531-4.004-8.218-7.971-11.057s-8.568-4.258-13.807-4.258
			c-5.688,0-10.676,1.594-14.967,4.781c-2.693,1.992-5.188,5.503-7.482,10.533H159.348z"/>
		<path fill="#FFFFFF" d="M216.497,963.62v8.965c3.686-3.686,7.67-6.449,11.953-8.293c4.283-1.842,8.865-2.764,13.746-2.764
			c10.609,0,19.623,4.01,27.045,12.027c7.42,8.02,11.131,18.304,11.131,30.854c0,12.103-3.836,22.226-11.505,30.368
			c-7.67,8.144-16.76,12.215-27.269,12.215c-4.682,0-9.039-0.835-13.073-2.503s-8.044-4.395-12.028-8.181v38.325h-20.245V963.62
			H216.497z M237.938,980.354c-6.425,0-11.755,2.192-15.987,6.574c-4.233,4.383-6.351,10.111-6.351,17.183
			c0,7.222,2.117,13.063,6.351,17.519c4.232,4.458,9.563,6.687,15.987,6.687c6.226,0,11.468-2.266,15.726-6.798
			c4.259-4.532,6.388-10.311,6.388-17.332c0-6.973-2.092-12.688-6.275-17.146C249.593,982.584,244.313,980.354,237.938,980.354z"/>
		<path fill="#FFFFFF" d="M292.475,963.62h17.481v10.234c1.893-4.033,4.408-7.097,7.545-9.188c3.139-2.092,6.574-3.138,10.311-3.138
			c2.639,0,5.403,0.698,8.292,2.092l-6.351,17.557c-2.391-1.195-4.358-1.793-5.901-1.793c-3.138,0-5.79,1.941-7.956,5.826
			c-2.167,3.885-3.25,11.506-3.25,22.861l0.074,3.959v32.871h-20.245V963.62z"/>
		<path fill="#FFFFFF" d="M384.364,961.528c7.67,0,14.879,1.918,21.628,5.752c6.748,3.836,12.016,9.04,15.801,15.614
			c3.784,6.574,5.678,13.671,5.678,21.292c0,7.67-1.905,14.842-5.715,21.516c-3.811,6.674-9.003,11.891-15.577,15.65
			s-13.82,5.641-21.739,5.641c-11.654,0-21.604-4.146-29.846-12.438c-8.243-8.293-12.364-18.365-12.364-30.22
			c0-12.699,4.657-23.282,13.971-31.75C364.368,965.215,373.757,961.528,384.364,961.528z M384.701,980.728
			c-6.336,0-11.612,2.204-15.827,6.612c-4.217,4.407-6.324,10.048-6.324,16.921c0,7.072,2.083,12.801,6.249,17.183
			c4.165,4.383,9.441,6.574,15.827,6.574s11.699-2.216,15.939-6.649c4.24-4.432,6.361-10.134,6.361-17.107
			c0-6.973-2.084-12.637-6.249-16.996C396.512,982.907,391.187,980.728,384.701,980.728z"/>
		<path fill="#FFFFFF" d="M443.533,963.62h20.396v83.971c0,7.72-0.761,13.484-2.279,17.295c-1.52,3.81-3.922,6.735-7.209,8.777
			s-7.246,3.063-11.879,3.063c-4.084,0-9.163-1.021-15.24-3.063v-16.062c3.188,1.543,6.003,2.315,8.442,2.315
			c2.589,0,4.531-0.772,5.827-2.315c1.295-1.544,1.942-4.383,1.942-8.517V963.62z M453.693,930.151c3.635,0,6.735,1.292,9.301,3.874
			c2.564,2.582,3.848,5.712,3.848,9.387c0,3.625-1.271,6.73-3.81,9.313c-2.541,2.582-5.579,3.873-9.115,3.873
			c-3.636,0-6.736-1.315-9.301-3.948c-2.565-2.632-3.848-5.811-3.848-9.535c0-3.575,1.258-6.63,3.773-9.163
			C447.056,931.418,450.107,930.151,453.693,930.151z"/>
		<path fill="#FFFFFF" d="M565.306,1010.163h-65.518c0.945,5.777,3.474,10.372,7.582,13.783c4.109,3.412,9.351,5.117,15.727,5.117
			c7.619,0,14.168-2.664,19.647-7.994l17.183,8.068c-4.284,6.077-9.413,10.571-15.39,13.485c-5.977,2.913-13.073,4.37-21.292,4.37
			c-12.75,0-23.134-4.021-31.152-12.065c-8.02-8.042-12.027-18.116-12.027-30.219c0-12.401,3.996-22.698,11.99-30.892
			c7.993-8.191,18.016-12.289,30.069-12.289c12.8,0,23.208,4.098,31.228,12.289c8.019,8.193,12.027,19.014,12.027,32.461
			L565.306,1010.163z M544.911,994.101c-1.348-4.531-4.004-8.218-7.971-11.057s-8.568-4.258-13.807-4.258
			c-5.688,0-10.677,1.594-14.966,4.781c-2.694,1.992-5.189,5.503-7.483,10.533H544.911z"/>
		<path fill="#FFFFFF" d="M661.38,980.056l-16.979,9.338c-3.191-3.336-6.346-5.651-9.463-6.947
			c-3.116-1.295-6.769-1.942-10.957-1.942c-7.629,0-13.801,2.275-18.512,6.825c-4.713,4.55-7.068,10.381-7.068,17.491
			c0,6.912,2.268,12.558,6.807,16.933c4.537,4.376,10.496,6.563,17.876,6.563c9.126,0,16.231-3.112,21.317-9.339l16.082,11.012
			c-8.717,11.337-21.019,17.004-36.906,17.004c-14.294,0-25.487-4.232-33.58-12.7c-8.095-8.467-12.141-18.378-12.141-29.733
			c0-7.869,1.968-15.115,5.902-21.74c3.934-6.623,9.425-11.828,16.473-15.613c7.047-3.784,14.929-5.678,23.645-5.678
			c8.068,0,15.315,1.606,21.74,4.818C652.041,969.56,657.295,974.129,661.38,980.056z"/>
		<path fill="#FFFFFF" d="M682.224,933.663h20.395v29.957h12.103v17.557h-12.103v63.725h-20.395v-63.725h-10.459V963.62h10.459
			V933.663z"/>
	</g>
</g>
</svg>
