<?xml version="1.0" encoding="utf-8"?>
<!-- Generator: Adobe Illustrator 16.0.0, SVG Export Plug-In . SVG Version: 6.00 Build 0)  -->
<!DOCTYPE svg PUBLIC "-//W3C//DTD SVG 1.1//EN" "http://www.w3.org/Graphics/SVG/1.1/DTD/svg11.dtd">
<svg version="1.1" id="Layer_1" xmlns="http://www.w3.org/2000/svg" xmlns:xlink="http://www.w3.org/1999/xlink" x="0px" y="0px"
	 width="960px" height="560px" viewBox="0 0 960 560" enable-background="new 0 0 960 560" xml:space="preserve">
<path fill="#ECEAED" d="M492.623,281c0-6.419-5.203-11.623-11.623-11.623c-6.418,0-11.623,5.204-11.623,11.623
	c0,6.419,5.205,11.623,11.623,11.623C487.42,292.623,492.623,287.419,492.623,281z M471.557,281c0-5.216,4.229-9.444,9.443-9.444
	c5.217,0,9.443,4.228,9.443,9.444c0,5.215-4.227,9.443-9.443,9.443C475.785,290.443,471.557,286.215,471.557,281z M482.027,287.838
	l5.813-5.811c0.566-0.567,0.566-1.487,0-2.055c-0.568-0.567-1.488-0.567-2.055,0l-3.332,3.331v-8.115
	c0-0.803-0.65-1.453-1.453-1.453s-1.453,0.65-1.453,1.453v8.115l-3.33-3.331c-0.568-0.567-1.488-0.567-2.055,0
	c-0.283,0.284-0.426,0.656-0.426,1.027c0,0.372,0.143,0.744,0.426,1.028l5.811,5.812
	C480.541,288.406,481.461,288.406,482.027,287.838z"/>
<g>
</g>
<g>
</g>
<g>
</g>
<g>
</g>
<g>
</g>
<g>
</g>
<g>
</g>
<g>
</g>
<g>
</g>
<g>
</g>
<g>
</g>
<g>
</g>
<g>
</g>
<g>
</g>
<g>
</g>
</svg>
