<?xml version="1.0" encoding="utf-8"?>
<!-- Generator: Adobe Illustrator 16.0.0, SVG Export Plug-In . SVG Version: 6.00 Build 0)  -->
<!DOCTYPE svg PUBLIC "-//W3C//DTD SVG 1.1//EN" "http://www.w3.org/Graphics/SVG/1.1/DTD/svg11.dtd">
<svg version="1.1" id="Layer_1" xmlns="http://www.w3.org/2000/svg" xmlns:xlink="http://www.w3.org/1999/xlink" x="0px" y="0px"
	 width="960px" height="560px" viewBox="0 0 960 560" enable-background="new 0 0 960 560" xml:space="preserve">
<path fill="#4A489D" d="M286.609,268.068c-0.413-0.734-0.88-1.432-1.381-2.103c0.331,0.703,0.628,1.424,0.874,2.171
	C286.271,268.114,286.438,268.085,286.609,268.068z"/>
<path fill="#4A489D" d="M253.877,288.899c0.226-0.133,0.454-0.26,0.688-0.379c-0.08-0.073-0.162-0.145-0.241-0.219
	C254.182,288.507,254.03,288.704,253.877,288.899z"/>
<path fill="#2980BA" d="M235.38,309.593c-4.58,0-8.656-2.134-11.308-5.455c2.205,5.177,7.338,8.807,13.319,8.807
	c4.946,0,9.307-2.484,11.917-6.27c-0.735-1.231-1.282-2.588-1.576-4.041C245.193,306.802,240.619,309.593,235.38,309.593z"/>
<path fill="#4A489D" d="M250.215,292.112c-0.203,0.119-0.407,0.236-0.617,0.344c0.025,0.135,0.041,0.271,0.062,0.406
	C249.833,292.604,250.023,292.357,250.215,292.112z"/>
<path fill="#2980BA" d="M320.232,293.979c0,9.044-7.333,16.376-16.378,16.376c-4.379,0-8.347-1.729-11.285-4.529
	c-2.123,4.253-6.504,7.181-11.58,7.181c-4.197,0-7.916-2.005-10.283-5.101c-2.365,3.096-6.085,5.101-10.282,5.101
	c-4.01,0-7.592-1.823-9.967-4.685c1.936,4.714,6.566,8.035,11.978,8.035c4.197,0,7.917-2.005,10.283-5.1
	c2.365,3.095,6.085,5.1,10.282,5.1c5.076,0,9.458-2.928,11.581-7.18c2.938,2.8,6.906,4.529,11.285,4.529
	c9.045,0,16.377-7.332,16.377-16.376c0-3.772-1.289-7.237-3.434-10.007C319.718,289.358,320.232,291.606,320.232,293.979z"/>
<path fill="#FFFFFF" d="M260.424,313.006c4.197,0,7.917-2.005,10.282-5.101c2.367,3.096,6.086,5.101,10.283,5.101
	c5.076,0,9.457-2.928,11.58-7.181c2.938,2.801,6.906,4.529,11.285,4.529c9.045,0,16.378-7.332,16.378-16.376
	c0-2.372-0.515-4.62-1.423-6.655c-2.552-5.725-8.281-9.721-14.955-9.721c-0.95,0-1.876,0.098-2.782,0.254
	c-0.214,0.037-0.429,0.065-0.64,0.11c-0.156-0.661-0.356-1.306-0.61-1.925c-1.936-4.714-6.566-8.036-11.978-8.036
	c-0.417,0-0.828,0.024-1.235,0.063c-0.171,0.017-0.338,0.046-0.507,0.068c-0.246-0.747-0.543-1.468-0.874-2.171
	c-3.103-6.602-9.792-11.183-17.567-11.183c-8.969,0-16.496,6.087-18.73,14.348c-1.609-0.718-3.387-1.125-5.263-1.125
	c-7.152,0-12.949,5.798-12.949,12.948c0,0.158,0.018,0.313,0.023,0.469c-5.714,1.935-9.833,7.33-9.833,13.698
	c0,3.412,1.188,6.542,3.164,9.017c2.652,3.321,6.728,5.455,11.308,5.455c5.238,0,9.813-2.791,12.353-6.959
	c0.293,1.453,0.84,2.81,1.576,4.041c0.344,0.577,0.721,1.132,1.148,1.646C252.832,311.183,256.415,313.006,260.424,313.006z
	 M254.324,288.302c0.079,0.074,0.161,0.146,0.241,0.219c-0.234,0.119-0.462,0.246-0.688,0.379
	C254.03,288.704,254.182,288.507,254.324,288.302z M250.215,292.112c-0.191,0.245-0.381,0.491-0.555,0.75
	c-0.021-0.135-0.037-0.271-0.062-0.406C249.808,292.349,250.012,292.231,250.215,292.112z"/>
<path fill="#4A489D" d="M131.973,286.493c-0.523-1.097-1.154-2.13-1.883-3.087c0.517,1.135,0.924,2.328,1.191,3.576
	C131.51,286.817,131.737,286.648,131.973,286.493z"/>
<path fill="#4A489D" d="M164.428,298.433c-0.58-1.231-1.273-2.394-2.072-3.479c0.551,1.148,0.998,2.352,1.334,3.604
	C163.932,298.504,164.181,298.471,164.428,298.433z"/>
<path fill="#2980BA" d="M77.702,326.761c2.972,0,5.698-1.037,7.85-2.762c2.64,3.521,6.833,5.809,11.572,5.809
	c4.12,0,7.829-1.729,10.464-4.492c2.935,2.777,6.885,4.491,11.245,4.491c5.35,0,10.085-2.576,13.073-6.543
	c3.659,3.123,8.397,5.02,13.585,5.02c5.334,0,10.187-2.01,13.885-5.292c2.28,2.323,5.453,3.769,8.966,3.769
	c6.94,0,12.567-5.627,12.567-12.567c0-3.07-1.104-5.88-2.932-8.063c0.589,1.457,0.921,3.045,0.921,4.712
	c0,6.94-5.626,12.567-12.567,12.567c-3.514,0-6.686-1.445-8.967-3.769c-3.697,3.282-8.551,5.292-13.884,5.292
	c-5.188,0-9.926-1.896-13.585-5.02c-2.988,3.967-7.725,6.543-13.074,6.543c-4.358,0-8.31-1.714-11.244-4.491
	c-2.635,2.763-6.344,4.492-10.464,4.492c-4.739,0-8.933-2.288-11.573-5.809c-2.151,1.725-4.877,2.762-7.849,2.762
	c-3.871,0-7.33-1.753-9.635-4.505C67.921,323.51,72.429,326.761,77.702,326.761z"/>
<path fill="#FFFFFF" d="M75.691,323.409c2.972,0,5.698-1.037,7.849-2.762c2.64,3.521,6.834,5.809,11.573,5.809
	c4.12,0,7.829-1.729,10.464-4.492c2.934,2.777,6.885,4.491,11.244,4.491c5.35,0,10.086-2.576,13.074-6.543
	c3.659,3.123,8.396,5.02,13.585,5.02c5.333,0,10.187-2.01,13.884-5.292c2.281,2.323,5.453,3.769,8.967,3.769
	c6.941,0,12.567-5.627,12.567-12.567c0-1.667-0.332-3.255-0.921-4.712c-1.865-4.604-6.373-7.855-11.646-7.855
	c-0.648,0-1.28,0.064-1.902,0.159c-0.247,0.038-0.496,0.071-0.738,0.124c-0.336-1.252-0.783-2.455-1.334-3.604
	c-3.375-7.039-10.547-11.913-18.876-11.913c-4.253,0-8.203,1.275-11.507,3.453c-0.236,0.155-0.463,0.324-0.691,0.489
	c-0.268-1.248-0.675-2.441-1.191-3.576c-2.76-6.053-8.849-10.268-15.935-10.268c-7.949,0-14.651,5.298-16.793,12.553
	c-0.968-0.23-1.972-0.366-3.01-0.366c-7.151,0-12.949,5.798-12.949,12.948c0,0.481,0.031,0.955,0.082,1.423
	c-1.735-0.903-3.703-1.423-5.794-1.423c-6.941,0-12.568,5.627-12.568,12.568c0,3.07,1.104,5.881,2.933,8.063
	C68.361,321.656,71.82,323.409,75.691,323.409z"/>
<path fill="#4A489D" d="M461.32,310.622c0-0.888,0.108-1.748,0.296-2.579c-0.479,1.246-0.767,2.582-0.837,3.979
	c0.252,0.197,0.492,0.407,0.729,0.623C461.392,311.986,461.32,311.313,461.32,310.622z"/>
<path fill="#2980BA" d="M556.23,321.896c0,6.941-5.627,12.567-12.568,12.567c-2.79,0-5.358-0.921-7.443-2.458
	c-3.721,2.514-8.207,3.982-13.036,3.982c-5.897,0-11.279-2.194-15.385-5.805c-2.934,4.415-7.947,7.328-13.645,7.328
	c-4.358,0-8.31-1.715-11.244-4.492c-2.636,2.763-6.344,4.492-10.464,4.492c-4.738,0-8.933-2.288-11.572-5.809
	c-2.151,1.725-4.878,2.762-7.85,2.762c-3.87,0-7.329-1.752-9.635-4.503c1.865,4.604,6.373,7.854,11.646,7.854
	c2.972,0,5.698-1.037,7.85-2.762c2.64,3.521,6.834,5.809,11.572,5.809c4.12,0,7.828-1.73,10.464-4.492
	c2.935,2.777,6.885,4.492,11.244,4.492c5.35,0,10.086-2.577,13.074-6.545c3.658,3.125,8.396,5.021,13.584,5.021
	c5.334,0,10.187-2.01,13.885-5.293c2.28,2.324,5.453,3.769,8.967,3.769c6.94,0,12.566-5.626,12.566-12.567
	c0-3.069-1.104-5.879-2.931-8.062C555.898,318.643,556.23,320.229,556.23,321.896z"/>
<path fill="#FFFFFF" d="M453.023,334.465c2.972,0,5.698-1.037,7.85-2.762c2.64,3.521,6.834,5.809,11.572,5.809
	c4.12,0,7.828-1.729,10.464-4.492c2.935,2.777,6.886,4.492,11.244,4.492c5.697,0,10.711-2.913,13.645-7.328
	c4.105,3.61,9.487,5.805,15.385,5.805c4.829,0,9.315-1.469,13.036-3.982c2.085,1.537,4.653,2.458,7.443,2.458
	c6.941,0,12.568-5.626,12.568-12.567c0-1.667-0.332-3.254-0.921-4.71c-1.546-3.817-4.908-6.702-9.02-7.577
	c-1.501-11.429-11.27-20.253-23.107-20.253c-1.999,0-3.939,0.253-5.791,0.726c-2.901-8.918-11.277-15.367-21.164-15.367
	c-12.293,0-22.259,9.966-22.259,22.259c0,0.69,0.036,1.372,0.098,2.048c-0.359-0.034-0.722-0.056-1.09-0.056
	c-5.55,0-10.186,3.883-11.36,9.077c-0.188,0.831-0.296,1.691-0.296,2.579c0,0.69,0.071,1.364,0.188,2.022
	c-0.236-0.216-0.477-0.426-0.729-0.623c-2.137-1.682-4.826-2.691-7.756-2.691c-6.941,0-12.568,5.627-12.568,12.567
	c0,3.071,1.104,5.882,2.934,8.064C445.694,332.713,449.153,334.465,453.023,334.465z"/>
<path fill="#2980BA" d="M874.277,357.584c-7.702,0-14.415-4.166-18.06-10.354c-4.307,3.985-10.051,6.44-16.381,6.44
	c-4.601,0-8.887-1.312-12.548-3.545c-5.794,3.842-12.739,6.087-20.214,6.087c-9.016,0-17.265-3.266-23.646-8.667
	c-4.932,4.853-11.69,7.853-19.156,7.853c-7.272,0-13.864-2.859-18.761-7.493c-4.397,4.609-10.585,7.494-17.459,7.494
	c-7.225,0-13.691-3.189-18.115-8.22c-6.396,8.207-16.348,13.506-27.558,13.506c-7.774,0-14.931-2.569-20.735-6.861
	c-3.82,4.029-9.211,6.557-15.204,6.557c-6.459,0-12.229-2.923-16.077-7.515c3.112,7.681,10.633,13.106,19.432,13.106
	c5.993,0,11.385-2.526,15.206-6.557c5.805,4.292,12.96,6.86,20.734,6.86c11.209,0,21.161-5.299,27.556-13.505
	c4.425,5.028,10.892,8.219,18.116,8.219c6.875,0,13.062-2.884,17.459-7.493c4.896,4.632,11.487,7.493,18.761,7.493
	c7.466,0,14.225-3.001,19.157-7.854c6.38,5.403,14.63,8.667,23.646,8.667c7.474,0,14.42-2.244,20.214-6.086
	c3.661,2.233,7.946,3.545,12.548,3.545c6.33,0,12.073-2.455,16.38-6.44c3.645,6.188,10.358,10.353,18.06,10.353
	c11.58,0,20.969-9.387,20.969-20.968c0-5.123-1.841-9.813-4.893-13.452c0.984,2.428,1.538,5.077,1.538,7.859
	C895.246,348.195,885.857,357.584,874.277,357.584z"/>
<path fill="#FFFFFF" d="M646.441,360.38c5.993,0,11.384-2.527,15.204-6.557c5.805,4.292,12.961,6.861,20.735,6.861
	c11.21,0,21.162-5.299,27.558-13.506c4.424,5.03,10.891,8.22,18.115,8.22c6.874,0,13.062-2.885,17.459-7.494
	c4.896,4.634,11.488,7.493,18.761,7.493c7.466,0,14.225-3,19.156-7.853c6.381,5.401,14.63,8.667,23.646,8.667
	c7.475,0,14.42-2.245,20.214-6.087c3.661,2.233,7.947,3.545,12.548,3.545c6.33,0,12.074-2.455,16.381-6.44
	c3.645,6.188,10.357,10.354,18.06,10.354c11.58,0,20.969-9.389,20.969-20.971c0-2.782-0.554-5.432-1.538-7.859
	c-3.11-7.685-10.632-13.108-19.431-13.108c-4.639,0-8.913,1.524-12.385,4.075c-3.573-8.026-11.393-13.723-20.61-14.271
	c-0.14-0.008-0.278-0.017-0.418-0.021c-0.25-0.592-0.511-1.176-0.787-1.749c-5.922-12.263-18.475-20.721-33.002-20.721
	c-6.55,0-12.692,1.729-18.013,4.74c-0.331,0.187-0.665,0.371-0.989,0.568c-0.424-1.624-0.976-3.195-1.66-4.696
	c-4.604-10.1-14.764-17.133-26.586-17.133c-13.264,0-24.447,8.84-28.022,20.944c-1.613-0.385-3.288-0.611-5.021-0.611
	c-9.191,0-17.021,5.75-20.144,13.84c-6.286-6.072-14.829-9.823-24.26-9.823c-16.83,0-30.874,11.897-34.196,27.742
	c-0.576-0.049-1.154-0.088-1.743-0.088c-11.581,0-20.97,9.388-20.97,20.968c0,5.123,1.843,9.811,4.893,13.454
	C634.212,357.457,639.982,360.38,646.441,360.38z"/>
<path fill="#2980BA" d="M678.002,270.571c-5.45,0-10.398-2.1-14.125-5.512c-2.614,5.274-8.037,8.908-14.323,8.908
	c-5.901,0-11.043-3.205-13.814-7.96c-3.838,4.817-9.743,7.913-16.381,7.913c-3.889,0-7.517-1.078-10.638-2.924
	c-3.646,3.074-8.349,4.936-13.491,4.936c-7.906,0-14.785-4.384-18.351-10.85c-4.241,3.573-9.714,5.73-15.693,5.73
	c-8.187,0-15.424-4.041-19.844-10.23c3.981,8.046,12.27,13.582,21.854,13.582c5.979,0,11.453-2.158,15.693-5.731
	c3.566,6.467,10.444,10.851,18.35,10.851c5.144,0,9.847-1.861,13.492-4.936c3.121,1.846,6.749,2.924,10.637,2.924
	c6.639,0,12.544-3.096,16.381-7.913c2.772,4.755,7.914,7.96,13.815,7.96c6.286,0,11.709-3.635,14.323-8.908
	c3.727,3.412,8.675,5.512,14.125,5.512c11.568,0,20.946-9.378,20.946-20.947c0-4.639-1.526-8.911-4.08-12.383
	c1.313,2.738,2.069,5.793,2.069,9.031C698.948,261.193,689.571,270.571,678.002,270.571z"/>
<path fill="#4A489D" d="M652.539,226.036c-0.585-1.618-1.412-3.116-2.445-4.452c0.644,1.445,1.082,2.999,1.283,4.63
	C651.758,226.136,652.148,226.086,652.539,226.036z"/>
<path fill="#4A489D" d="M638.399,244.286c0.244,0.533,0.461,1.079,0.66,1.635c0.017-0.014,0.031-0.029,0.048-0.043
	c-0.142-0.551-0.255-1.111-0.337-1.683C638.646,244.224,638.525,244.261,638.399,244.286z"/>
<path fill="#FFFFFF" d="M561.186,270.813c5.979,0,11.452-2.157,15.693-5.73c3.565,6.466,10.444,10.85,18.351,10.85
	c5.143,0,9.846-1.861,13.491-4.936c3.121,1.846,6.749,2.924,10.638,2.924c6.638,0,12.543-3.096,16.381-7.913
	c2.771,4.755,7.913,7.96,13.814,7.96c6.286,0,11.709-3.634,14.323-8.908c3.727,3.412,8.675,5.512,14.125,5.512
	c11.569,0,20.946-9.378,20.946-20.947c0-3.238-0.757-6.293-2.069-9.031c-3.375-7.04-10.547-11.914-18.877-11.914
	c-4.039,0-7.798,1.163-10.997,3.144c-2.932-3.616-7.405-5.931-12.424-5.931c-0.693,0-1.372,0.059-2.042,0.145
	c-0.391,0.05-0.781,0.1-1.162,0.178c-0.201-1.631-0.64-3.185-1.283-4.63c-2.552-5.726-8.283-9.724-14.956-9.724
	c-0.986,0-1.946,0.102-2.885,0.27c-0.319,0.057-0.635,0.125-0.947,0.199c-0.375-1.799-0.967-3.52-1.747-5.131
	c-3.606-7.445-11.234-12.58-20.063-12.58c-7.73,0-14.539,3.938-18.535,9.916c-2.316-0.882-4.819-1.387-7.445-1.387
	c-10.899,0-19.848,8.328-20.847,18.967c-0.49-0.029-0.984-0.049-1.482-0.049c-13.462,0-24.374,10.912-24.374,24.374
	c0,5.274,1.682,10.155,4.53,14.144C545.762,266.772,552.999,270.813,561.186,270.813z M638.771,244.195
	c0.082,0.571,0.195,1.132,0.337,1.683c-0.017,0.014-0.031,0.029-0.048,0.043c-0.199-0.556-0.416-1.102-0.66-1.635
	C638.525,244.261,638.646,244.224,638.771,244.195z"/>
<g>
</g>
<g>
</g>
<g>
</g>
<g>
</g>
<g>
</g>
<g>
</g>
<g>
</g>
<g>
</g>
<g>
</g>
<g>
</g>
<g>
</g>
<g>
</g>
<g>
</g>
<g>
</g>
<g>
</g>
</svg>
