<?xml version="1.0" encoding="utf-8"?>
<!-- Generator: Adobe Illustrator 16.0.0, SVG Export Plug-In . SVG Version: 6.00 Build 0)  -->
<!DOCTYPE svg PUBLIC "-//W3C//DTD SVG 1.1//EN" "http://www.w3.org/Graphics/SVG/1.1/DTD/svg11.dtd">
<svg version="1.1" id="Layer_1" xmlns="http://www.w3.org/2000/svg" xmlns:xlink="http://www.w3.org/1999/xlink" x="0px" y="0px"
	 width="960px" height="560px" viewBox="0 0 960 560" enable-background="new 0 0 960 560" xml:space="preserve">
<path fill="#FFFFFF" d="M479.011,275.515c-0.474-1.665-1.237-2.157-2.426-2.157c-0.129,0-0.257,0.018-0.381,0.053
	c-0.514,0.145-0.923,0.575-1.151,1.212c-0.232,0.648-0.248,1.322-0.046,2.093c0.361,1.372,1.337,2.368,2.321,2.368
	c0.129,0,0.257-0.018,0.38-0.053C478.784,278.728,479.458,277.085,479.011,275.515z M480.781,262.025
	c-10.388,0-18.809,8.421-18.809,18.809s8.421,18.809,18.809,18.809c10.389,0,18.809-8.421,18.809-18.809
	S491.17,262.025,480.781,262.025z M479.697,288.909c-1.181,0.574-2.454,0.637-2.946,0.637c-0.094,0-0.148-0.003-0.156-0.003
	c0,0-0.035,0.001-0.096,0.001c-0.767,0-4.59-0.176-4.59-3.658c0-3.421,4.163-3.688,5.438-3.688h0.034
	c-0.737-0.983-0.584-1.977-0.584-1.977c-0.065,0.005-0.159,0.01-0.275,0.01c-0.48,0-1.407-0.077-2.203-0.592
	c-0.975-0.627-1.468-1.694-1.468-3.173c0-4.174,4.559-4.343,4.604-4.344h4.553v0.099c0,0.51-0.914,0.606-1.539,0.691
	c-0.21,0.029-0.635,0.074-0.755,0.136c1.153,0.614,1.339,1.583,1.339,3.025c0,1.642-0.643,2.51-1.324,3.12
	c-0.421,0.377-0.754,0.674-0.754,1.07c0,0.389,0.456,0.789,0.983,1.252c0.865,0.76,2.05,1.8,2.05,3.547
	C482.008,286.872,481.23,288.165,479.697,288.909z M489.652,280.816h-2.971v2.97h-1.881v-2.97h-2.969v-1.881h2.969v-2.97h1.881v2.97
	h2.971V280.816z M477.298,283.09c-0.102,0-0.204,0.004-0.307,0.011c-0.871,0.064-1.672,0.39-2.255,0.918
	c-0.576,0.521-0.87,1.177-0.828,1.845c0.087,1.391,1.583,2.208,3.399,2.076c1.789-0.13,2.979-1.157,2.892-2.55
	C480.117,284.078,478.979,283.09,477.298,283.09z"/>
<g>
</g>
<g>
</g>
<g>
</g>
<g>
</g>
<g>
</g>
<g>
</g>
<g>
</g>
<g>
</g>
<g>
</g>
<g>
</g>
<g>
</g>
<g>
</g>
<g>
</g>
<g>
</g>
<g>
</g>
</svg>
