<?xml version="1.0" encoding="utf-8"?>
<!-- Generator: Adobe Illustrator 16.0.0, SVG Export Plug-In . SVG Version: 6.00 Build 0)  -->
<!DOCTYPE svg PUBLIC "-//W3C//DTD SVG 1.1//EN" "http://www.w3.org/Graphics/SVG/1.1/DTD/svg11.dtd">
<svg version="1.1" id="Layer_1" xmlns="http://www.w3.org/2000/svg" xmlns:xlink="http://www.w3.org/1999/xlink" x="0px" y="0px"
	 width="960px" height="560px" viewBox="0 0 960 560" enable-background="new 0 0 960 560" xml:space="preserve">
<path fill="#FFFFFF" d="M480.911,262.025c-10.465,0-18.949,8.483-18.949,18.949c0,10.465,8.484,18.949,18.949,18.949
	c10.466,0,18.949-8.484,18.949-18.949C499.859,270.509,491.377,262.025,480.911,262.025z M476.273,288.827h-3.838v-12.348h3.838
	V288.827z M474.329,274.965c-1.212,0-1.995-0.858-1.995-1.919c0-1.085,0.808-1.918,2.045-1.918s1.995,0.833,2.02,1.918
	C476.399,274.106,475.616,274.965,474.329,274.965z M490.285,288.827h-3.837v-6.843c0-1.59-0.557-2.677-1.944-2.677
	c-1.061,0-1.691,0.732-1.969,1.44c-0.103,0.252-0.128,0.606-0.128,0.958v7.121h-3.837v-8.408c0-1.539-0.05-2.827-0.101-3.939h3.333
	l0.177,1.718h0.076c0.505-0.809,1.742-1.995,3.813-1.995c2.525,0,4.418,1.691,4.418,5.328V288.827z"/>
<g>
</g>
<g>
</g>
<g>
</g>
<g>
</g>
<g>
</g>
<g>
</g>
<g>
</g>
<g>
</g>
<g>
</g>
<g>
</g>
<g>
</g>
<g>
</g>
<g>
</g>
<g>
</g>
<g>
</g>
</svg>
