<?xml version="1.0" encoding="utf-8"?>
<!-- Generator: Adobe Illustrator 16.0.0, SVG Export Plug-In . SVG Version: 6.00 Build 0)  -->
<!DOCTYPE svg PUBLIC "-//W3C//DTD SVG 1.1//EN" "http://www.w3.org/Graphics/SVG/1.1/DTD/svg11.dtd">
<svg version="1.1" id="Layer_1" xmlns="http://www.w3.org/2000/svg" xmlns:xlink="http://www.w3.org/1999/xlink" x="0px" y="0px"
	 width="960px" height="560px" viewBox="0 0 960 560" enable-background="new 0 0 960 560" xml:space="preserve">
<path fill="#2980BA" d="M510.605,235.689h-60c-5.5,0-10,4.5-10,10v70c0,5.5,4.5,10,10,10h60c5.5,0,10-4.5,10-10v-70
	C520.605,240.189,516.105,235.689,510.605,235.689z M510.605,315.689h-60v-70h60V315.689z M485.605,290.689h-25v5h25V290.689z
	 M500.605,270.689h-20v5h20V270.689z M480.605,265.689h20v-10h-20V265.689z M475.605,255.689h-15v20h15V255.689z M470.605,280.689
	h-10v5h10V280.689z M475.605,285.689h25v-5h-25V285.689z M500.605,300.689h-40v5h40V300.689z M490.605,295.689h10v-5h-10V295.689z"
	/>
<g>
</g>
<g>
</g>
<g>
</g>
<g>
</g>
<g>
</g>
<g>
</g>
<g>
</g>
<g>
</g>
<g>
</g>
<g>
</g>
<g>
</g>
<g>
</g>
<g>
</g>
<g>
</g>
<g>
</g>
</svg>
