<?xml version="1.0" encoding="utf-8"?>
<!-- Generator: Adobe Illustrator 16.0.0, SVG Export Plug-In . SVG Version: 6.00 Build 0)  -->
<!DOCTYPE svg PUBLIC "-//W3C//DTD SVG 1.1//EN" "http://www.w3.org/Graphics/SVG/1.1/DTD/svg11.dtd">
<svg version="1.1" id="Layer_1" xmlns="http://www.w3.org/2000/svg" xmlns:xlink="http://www.w3.org/1999/xlink" x="0px" y="0px"
	 width="960px" height="560px" viewBox="0 0 960 560" enable-background="new 0 0 960 560" xml:space="preserve">
<g>
	<g>
		<g>
			<path fill="#2980BA" d="M428.431,273.521h28v-9h-28V273.521z M467.318,224.174h-50c-5.5,0-10,4.5-10,10v70c0,5.5,4.5,10,10,10h50
				c5.5,0,10-4.5,10-10v-70C477.318,228.674,472.818,224.174,467.318,224.174z M467.318,304.174h-50v-70h50V304.174z
				 M456.318,245.021h-28v8.75h28V245.021z M456.318,284.271h-28v8.75h28V284.271z"/>
		</g>
	</g>
	<path fill="#2980BA" d="M545.557,251.744l-45.916-19.789c-5.051-2.178-10.965,0.174-13.143,5.225l-27.704,64.285
		c-2.178,5.051,0.174,10.963,5.225,13.141l45.918,19.789c5.051,2.176,10.963-0.176,13.141-5.227l27.705-64.283
		C552.959,259.834,550.607,253.92,545.557,251.744z M495.115,252.705l38.455,16.574l-3.463,8.035L491.65,260.74L495.115,252.705z
		 M514.572,313.359l-38.455-16.574l3.463-8.035l38.455,16.574L514.572,313.359z M522.404,295.5l-38.455-16.572l3.563-8.266
		l38.455,16.574L522.404,295.5z"/>
</g>
<g>
</g>
<g>
</g>
<g>
</g>
<g>
</g>
<g>
</g>
<g>
</g>
<g>
</g>
<g>
</g>
<g>
</g>
<g>
</g>
<g>
</g>
<g>
</g>
<g>
</g>
<g>
</g>
<g>
</g>
</svg>
