<?xml version="1.0" encoding="utf-8"?>
<!-- Generator: Adobe Illustrator 16.0.0, SVG Export Plug-In . SVG Version: 6.00 Build 0)  -->
<!DOCTYPE svg PUBLIC "-//W3C//DTD SVG 1.1//EN" "http://www.w3.org/Graphics/SVG/1.1/DTD/svg11.dtd">
<svg version="1.1" id="Layer_1" xmlns="http://www.w3.org/2000/svg" xmlns:xlink="http://www.w3.org/1999/xlink" x="0px" y="0px"
	 width="960px" height="560px" viewBox="0 0 960 560" enable-background="new 0 0 960 560" xml:space="preserve">
<g>
	<polygon fill="#2980BA" points="351.269,146 368.472,116 351.269,116 320.718,116 303.151,116 320.718,146 	"/>
	<polygon fill="#2980BA" points="370.016,373 351.269,149 335.994,149 320.718,149 301.972,373 301.907,373 335.979,399.385 
		370.051,373 	"/>
</g>
<g>
	<polygon fill="#2980BA" points="621.096,157 622,156.057 622,157 640,157 640,156.057 659.514,116 640.596,116 621.331,116 
		601.613,116 621.043,157 	"/>
	<polygon fill="#2980BA" points="640,161 622,161 622,160.785 607.46,433 607.486,433 630.691,445.512 653.896,433 654.177,433 
		640,160.785 	"/>
</g>
<g>
	<path fill="#2980BA" d="M460.997,116h-6.237c-2.027,0-3.671,1.915-3.671,4.482l0.304,1.063L460.997,116z"/>
	<polygon fill="#2980BA" points="456.702,140.115 498.471,116 488.766,116 480.041,116 454.09,130.982 	"/>
	<path fill="#2980BA" d="M461.004,155.163c0.244,1.271,0.602,2.469,1.041,3.603l64.02-36.963l0.377-1.32
		c0-2.567-1.644-4.482-3.672-4.482h-5.256L459.4,149.554L461.004,155.163z"/>
	<path fill="#2980BA" d="M514.367,161.682L493.031,174h-4.266h-6.547l-2.621,4h4.273h4.232h0.846h0.021h1.117h8.454l-2.787-4h3.154
		C500.58,174,509.811,170.132,514.367,161.682z"/>
	<path fill="#2980BA" d="M467.308,166.722c2.844,2.864,6.027,4.781,8.336,5.827l43.013-24.833l3.644-12.745L467.308,166.722z"/>
	<polygon fill="#2980BA" points="490.023,287 462.271,287 473.794,300 490.154,300 490.331,300 506.112,300 516.99,287 490.178,287 
			"/>
	<polygon fill="#2980BA" points="489.829,267 444.989,267 455.936,281 489.953,281 490.094,281 522.975,281 533.308,267 489.95,267 
			"/>
	<polygon fill="#2980BA" points="489.631,238 529.886,238 523.269,225 489.487,225 489.432,225 456.338,225 450.113,238 
		489.555,238 	"/>
	<polygon fill="#2980BA" points="469.442,199 489.172,199 489.184,199 509.337,199 502.371,186 489.042,186 489.104,192.22 
		489.031,186 475.994,186 	"/>
	<polygon fill="#2980BA" points="459.614,219 489.367,219 489.412,219 519.785,219 512.82,206 489.26,206 489.236,206 466.167,206 	
		"/>
	<polygon fill="#2980BA" points="490.414,307 490.225,307 480.129,307 490,319.079 490,319.258 490.246,319.167 490.465,319.322 
		490.506,318.826 500.13,307 	"/>
	<polygon fill="#2980BA" points="539,260 532.775,247 489.426,247 446.183,247 439.958,260 489.426,260 	"/>
</g>
<g>
</g>
<g>
</g>
<g>
</g>
<g>
</g>
<g>
</g>
<g>
</g>
<g>
</g>
<g>
</g>
<g>
</g>
<g>
</g>
<g>
</g>
<g>
</g>
<g>
</g>
<g>
</g>
<g>
</g>
</svg>
