<?xml version="1.0" encoding="utf-8"?>
<!-- Generator: Adobe Illustrator 16.0.0, SVG Export Plug-In . SVG Version: 6.00 Build 0)  -->
<!DOCTYPE svg PUBLIC "-//W3C//DTD SVG 1.1//EN" "http://www.w3.org/Graphics/SVG/1.1/DTD/svg11.dtd">
<svg version="1.1" id="Layer_1" xmlns="http://www.w3.org/2000/svg" xmlns:xlink="http://www.w3.org/1999/xlink" x="0px" y="0px"
	 width="960px" height="560px" viewBox="0 0 960 560" enable-background="new 0 0 960 560" xml:space="preserve">
<path fill="#FFFFFF" d="M480.685,261.025c-10.661,0-19.302,8.642-19.302,19.302c0,10.661,8.641,19.303,19.302,19.303
	s19.303-8.642,19.303-19.303C499.988,269.667,491.346,261.025,480.685,261.025z M488.535,276.838
	c0.008,0.163,0.012,0.327,0.012,0.492c0,5.024-3.824,10.817-10.817,10.817c-2.146,0-4.145-0.63-5.827-1.709
	c0.297,0.035,0.599,0.054,0.907,0.054c1.781,0,3.42-0.608,4.722-1.628c-1.664-0.03-3.068-1.129-3.552-2.64
	c0.233,0.044,0.471,0.068,0.715,0.068c0.347,0,0.683-0.047,1.001-0.134c-1.739-0.35-3.05-1.886-3.05-3.729
	c0-0.016,0-0.031,0.001-0.047c0.512,0.285,1.099,0.455,1.722,0.476c-1.02-0.683-1.691-1.846-1.691-3.165
	c0-0.696,0.187-1.349,0.514-1.911c1.875,2.301,4.677,3.813,7.837,3.973c-0.066-0.278-0.099-0.569-0.099-0.866
	c0-2.101,1.703-3.802,3.802-3.802c1.093,0,2.081,0.462,2.773,1.2c0.867-0.171,1.682-0.486,2.416-0.922
	c-0.285,0.887-0.888,1.633-1.672,2.103c0.77-0.092,1.501-0.296,2.184-0.599C489.924,275.633,489.279,276.303,488.535,276.838z"/>
<g>
</g>
<g>
</g>
<g>
</g>
<g>
</g>
<g>
</g>
<g>
</g>
<g>
</g>
<g>
</g>
<g>
</g>
<g>
</g>
<g>
</g>
<g>
</g>
<g>
</g>
<g>
</g>
<g>
</g>
</svg>
